<svg xmlns="http://www.w3.org/2000/svg" xmlns:xlink="http://www.w3.org/1999/xlink" version="1.1" x="0px" y="0px" viewBox="0 0 128 160" style="enable-background:new 0 0 128 128;" xml:space="preserve"><g><path d="M109.3,103.6L90.1,90C101,73.9,99.3,51.7,85,37.4c-1.6-1.6-3.2-3-4.9-4.2L80,45.6c9.5,10.9,10.4,26.9,2.8,38.7   c-1.2,1.9-2.7,3.6-4.3,5.3c-1.6,1.6-3.4,3.1-5.3,4.3c-12.5,8.1-29.5,6.7-40.4-4.3c-12.6-12.6-12.6-33.1,0-45.7   c7.3-7.3,17.4-10.4,26.9-9.2v-9.3c-12-1.2-24.3,2.8-33.5,12C9.9,53.6,9.9,80,26.2,96.2c14.3,14.3,36.5,16,52.7,5.1l13.6,19.2   c0.6,0.8,1.4,1.6,2.2,2.2c5.3,4.1,12.9,3.1,16.9-2.2C115.6,115.2,114.6,107.7,109.3,103.6z"/><path d="M89.8,22.8c-1.5,2.3-4.6,3-6.9,1.6l-8.4-5v2.1l-0.2,48c-1.3,9.2-9.2,16.3-18.8,16.3c-11.7,0-20.9-10.5-18.7-22.5   c1.3-7.5,7.2-13.5,14.6-15.1c5.1-1.1,9.9-0.1,13.9,2.3V10.2c0-2,0.8-3.9,2.2-5.2c1.3-1.3,3.2-2.2,5.2-2.2c1.2,0,2.3,0.4,3.2,1.3   L89,16.2C90.8,17.9,91.2,20.7,89.8,22.8z"/></g></svg>